<svg xmlns="http://www.w3.org/2000/svg" viewBox="0 0 400 800">
  <g id="afeb6d73-a983-457e-8b2a-cc65f5e4ef11" data-name="Layer 2">
    <g id="b9b67c9a-7036-461f-9b64-5d702014f0ba" data-name="Layer 2">
      <g>
        <ellipse cx="200.6" cy="740.56" rx="29.82" ry="29.57"/>
        <path d="M339.29,0H60.71C27.18,0,0,26.72,0,59.68V740.32C0,773.28,27.18,800,60.71,800H339.29c33.53,0,60.71-26.72,60.71-59.68V59.68C400,26.72,372.82,0,339.29,0ZM60.71,16h48V27.18A16.63,16.63,0,0,0,125.5,43.67H274.79a16.63,16.63,0,0,0,16.77-16.49V16h47.73c24.5,0,44.44,19.59,44.44,43.68V713H268.89c-4.86,0-33,2.72-34.64,34.31-1.47,14.18-17,27.81-33.82,27.84s-32.35-13.66-33.82-27.84C165,715.76,136.82,713,132,713H16.27V59.68C16.27,35.59,36.21,16,60.71,16Z"/>
      </g>
    </g>
  </g>
</svg>
