<?xml version="1.0" encoding="utf-8"?>
<!-- Generator: Adobe Illustrator 24.1.0, SVG Export Plug-In . SVG Version: 6.00 Build 0)  -->
<svg version="1.1" id="Layer_1" xmlns="http://www.w3.org/2000/svg" xmlns:xlink="http://www.w3.org/1999/xlink" x="0px" y="0px"
	 viewBox="0 0 180 25.3" style="enable-background:new 0 0 180 25.3;" xml:space="preserve">
<style type="text/css">
	.st0{fill:#008B51;}
	.st1{enable-background:new    ;}
	.st2{fill:#FFFFFF;stroke:#FFFFFF;stroke-miterlimit:10;}
	.st3{fill:#FFFFFF;}
</style>
<path class="st0" d="M174.2,22.8c-0.6,0-1-0.2-1.4-0.6s-0.6-0.9-0.6-1.4c0-0.6,0.2-1.1,0.6-1.4c0.4-0.4,0.8-0.6,1.4-0.6
	c0.5,0,1,0.2,1.4,0.6s0.6,0.9,0.6,1.4c0,0.6-0.2,1.1-0.6,1.4C175.2,22.7,174.8,22.8,174.2,22.8z"/>
<path class="st0" d="M71.6,18.6c0,0.8-0.2,1.5-0.7,2.2c-0.4,0.7-1.1,1.3-2,1.7c-0.9,0.5-1.9,0.7-3,0.8v2h-1.8v-1.9
	C62.4,23.3,61,22.8,60,22s-1.6-1.8-1.6-3.1h3.3c0.1,0.6,0.3,1.1,0.7,1.5s1,0.6,1.7,0.7v-5.2c-1.2-0.3-2.2-0.5-3-0.8s-1.4-0.7-2-1.3
	c-0.5-0.6-0.8-1.4-0.8-2.4c0-1.3,0.5-2.4,1.6-3.2C61,7.3,62.3,6.8,64,6.7V4.9h1.8v1.9c1.6,0.1,2.9,0.6,3.8,1.3c1,0.7,1.5,1.7,1.7,3
	H68c-0.1-0.5-0.3-0.9-0.7-1.3c-0.4-0.4-0.9-0.7-1.5-0.8v5.1c1.2,0.2,2.2,0.5,3,0.8s1.4,0.7,1.9,1.3C71.4,16.8,71.6,17.6,71.6,18.6z
	 M61.6,11.4c0,0.6,0.2,1.1,0.7,1.5s1.1,0.6,1.9,0.9V9c-0.8,0.1-1.4,0.3-1.9,0.7C61.9,10.1,61.6,10.7,61.6,11.4z M66,21.2
	c0.8-0.1,1.4-0.4,1.9-0.8c0.5-0.5,0.7-1,0.7-1.6s-0.2-1.1-0.7-1.5c-0.4-0.4-1.1-0.6-1.9-0.9V21.2z"/>
<g class="st1">
	<path class="st2" d="M6,7.4v3h0.1c0.2-0.5,0.5-1,0.8-1.4c0.4-0.4,0.8-0.8,1.2-1.1C8.6,7.6,9,7.4,9.6,7.2C10.1,7,10.7,7,11.2,7
		c0.3,0,0.6,0.1,1,0.2v4.1c-0.2,0-0.5-0.1-0.7-0.1c-0.3,0-0.6,0-0.8,0c-0.8,0-1.5,0.1-2.1,0.4s-1,0.6-1.4,1.1
		c-0.3,0.5-0.6,1-0.7,1.6s-0.2,1.3-0.2,2v7.3H1.8V7.4H6z"/>
	<path class="st2" d="M14,4.9V1.3h4.4v3.6C18.4,4.9,14,4.9,14,4.9z M18.5,7.4v16.1H14V7.4H18.5z"/>
	<path class="st2" d="M33.4,21.4c-0.5,0.9-1.2,1.5-2,1.9s-1.8,0.6-2.8,0.6c-1.2,0-2.3-0.2-3.2-0.7c-0.9-0.5-1.7-1.1-2.3-1.9
		c-0.6-0.8-1-1.7-1.3-2.8c-0.3-1-0.5-2.1-0.5-3.2s0.2-2.1,0.5-3.1s0.7-1.9,1.3-2.7c0.6-0.8,1.3-1.4,2.2-1.9c0.9-0.5,1.9-0.7,3.1-0.7
		c1,0,1.9,0.2,2.7,0.6c0.9,0.4,1.5,1,2,1.8h0.1v-8h4.4v22.2h-4.2L33.4,21.4L33.4,21.4z M33.2,13.5c-0.1-0.6-0.3-1.2-0.6-1.6
		c-0.3-0.5-0.7-0.8-1.2-1.1c-0.5-0.4-1.1-0.5-1.8-0.5c-0.7,0-1.3,0.1-1.8,0.4c-0.5,0.3-0.9,0.7-1.2,1.2c-0.3,0.5-0.5,1-0.7,1.6
		c-0.1,0.6-0.2,1.3-0.2,1.9s0.1,1.2,0.2,1.9c0.1,0.6,0.4,1.2,0.7,1.7c0.3,0.5,0.7,0.9,1.2,1.2c0.5,0.3,1.1,0.5,1.8,0.5
		c0.7,0,1.3-0.1,1.8-0.4s0.9-0.7,1.2-1.2s0.5-1,0.6-1.7c0.1-0.6,0.2-1.3,0.2-1.9C33.4,14.7,33.3,14.1,33.2,13.5z"/>
	<path class="st2" d="M45.7,19.6c0.7,0.6,1.6,1,2.9,1c0.9,0,1.7-0.2,2.3-0.7c0.6-0.4,1-0.9,1.2-1.4H56c-0.6,1.9-1.6,3.3-2.9,4.1
		c-1.3,0.8-2.8,1.2-4.7,1.2c-1.3,0-2.4-0.2-3.4-0.6s-1.9-1-2.6-1.7c-0.7-0.7-1.3-1.6-1.6-2.7c-0.4-1-0.6-2.2-0.6-3.4
		s0.2-2.3,0.6-3.4c0.4-1,1-1.9,1.7-2.7s1.6-1.4,2.6-1.8s2.1-0.7,3.3-0.7c1.4,0,2.6,0.3,3.6,0.8s1.9,1.2,2.5,2.1
		c0.7,0.9,1.1,1.9,1.4,3.1c0.3,1.1,0.4,2.3,0.3,3.6H44.6C44.7,17.9,45.1,19,45.7,19.6z M50.7,11.2c-0.5-0.6-1.3-0.9-2.4-0.9
		c-0.7,0-1.3,0.1-1.8,0.4c-0.5,0.2-0.8,0.5-1.1,0.9s-0.5,0.7-0.6,1.1c-0.1,0.4-0.2,0.7-0.2,1.1h7.2C51.6,12.6,51.2,11.7,50.7,11.2z"
		/>
</g>
<g>
	<path class="st3" d="M78.7,9.5v13.3h-1.8V9.5h-2.5V7.9h2.5V6.6c0-0.6,0-1.2,0.1-1.8c0.1-0.5,0.3-1,0.5-1.4c0.3-0.4,0.6-0.7,1.1-0.9
		s1.1-0.3,1.8-0.3c0.3,0,0.5,0,0.7,0s0.5,0,0.8,0.1v1.6c-0.2,0-0.5-0.1-0.7-0.1s-0.4,0-0.6,0c-0.5,0-0.9,0.1-1.2,0.2
		c-0.3,0.2-0.5,0.4-0.6,0.6c-0.1,0.3-0.2,0.6-0.2,0.9s0,0.7,0,1.1v1.3h2.9v1.5h-2.8V9.5z"/>
	<path class="st3" d="M86.5,2.2v2.9h-1.8V2.2H86.5z M86.5,7.9v14.9h-1.8V7.9H86.5z"/>
	<path class="st3" d="M93,7.9v2.6h0.1c0.3-0.9,1-1.6,1.8-2.2c0.9-0.5,1.9-0.8,2.9-0.8s1.9,0.1,2.6,0.4c0.7,0.3,1.3,0.6,1.7,1.1
		c0.4,0.5,0.7,1.1,0.9,1.8c0.2,0.7,0.3,1.5,0.3,2.4v9.6h-1.8v-9.3c0-0.6-0.1-1.2-0.2-1.8c-0.1-0.5-0.3-1-0.6-1.4
		c-0.3-0.4-0.7-0.7-1.2-0.9C99,9.2,98.4,9,97.7,9s-1.4,0.1-1.9,0.4c-0.6,0.3-1,0.6-1.4,1.1s-0.7,1-0.9,1.6c-0.2,0.6-0.3,1.3-0.4,2
		v8.7h-1.8V7.9H93z"/>
	<path class="st3" d="M108.4,10.2c0.3-0.6,0.7-1.2,1.3-1.6c0.5-0.4,1.1-0.7,1.9-0.9s1.5-0.3,2.4-0.3c0.7,0,1.3,0.1,2,0.2
		s1.2,0.4,1.8,0.7c0.5,0.3,0.9,0.8,1.3,1.5c0.3,0.6,0.5,1.4,0.5,2.4v7.9c0,0.7,0.4,1.1,1.1,1.1c0.2,0,0.4,0,0.6-0.1v1.5
		c-0.2,0-0.4,0.1-0.6,0.1s-0.4,0-0.6,0c-0.5,0-0.8-0.1-1.1-0.2c-0.3-0.1-0.5-0.3-0.6-0.5c-0.2-0.2-0.3-0.5-0.3-0.8s-0.1-0.7-0.1-1.1
		h-0.1c-0.3,0.5-0.7,0.9-1,1.3s-0.7,0.7-1.1,0.9c-0.4,0.2-0.9,0.4-1.4,0.6c-0.5,0.1-1.2,0.2-1.9,0.2c-0.7,0-1.3-0.1-1.9-0.2
		c-0.6-0.2-1.1-0.4-1.6-0.8s-0.8-0.8-1.1-1.4c-0.3-0.5-0.4-1.2-0.4-1.9c0-1,0.2-1.8,0.7-2.4s1.1-1,1.8-1.3c0.8-0.3,1.6-0.5,2.6-0.6
		c0.9-0.1,1.9-0.2,2.9-0.4c0.4,0,0.7-0.1,1-0.1s0.5-0.2,0.7-0.3s0.3-0.3,0.4-0.6c0.1-0.2,0.2-0.6,0.2-1c0-0.6-0.1-1.1-0.3-1.5
		c-0.2-0.4-0.5-0.7-0.8-0.9c-0.4-0.2-0.8-0.4-1.2-0.5c-0.5-0.1-1-0.1-1.5-0.1c-1.2,0-2.1,0.3-2.8,0.8c-0.7,0.5-1.1,1.4-1.2,2.6h-1.8
		C107.9,11.6,108.1,10.9,108.4,10.2z M117.4,14.7c-0.1,0.2-0.3,0.4-0.7,0.5c-0.3,0.1-0.6,0.2-0.9,0.2c-0.8,0.1-1.6,0.3-2.4,0.4
		c-0.8,0.1-1.6,0.3-2.2,0.5s-1.2,0.5-1.7,0.9c-0.4,0.4-0.6,1-0.6,1.7c0,0.5,0.1,0.9,0.3,1.2c0.2,0.4,0.4,0.7,0.7,0.9
		c0.3,0.3,0.7,0.5,1.1,0.6s0.8,0.2,1.2,0.2c0.7,0,1.4-0.1,2-0.3c0.6-0.2,1.2-0.5,1.7-0.9s0.8-0.9,1.1-1.5c0.3-0.6,0.4-1.2,0.4-2
		V14.7L117.4,14.7z"/>
	<path class="st3" d="M126,7.9v2.6h0.1c0.3-0.9,1-1.6,1.8-2.2c0.9-0.5,1.9-0.8,2.9-0.8s1.9,0.1,2.6,0.4c0.7,0.3,1.3,0.6,1.7,1.1
		s0.7,1.1,0.9,1.8s0.3,1.5,0.3,2.4v9.6h-1.8v-9.3c0-0.6-0.1-1.2-0.2-1.8c-0.1-0.5-0.3-1-0.6-1.4s-0.7-0.7-1.2-0.9
		C132,9.2,131.4,9,130.7,9s-1.4,0.1-1.9,0.4c-0.6,0.3-1,0.6-1.4,1.1s-0.7,1-0.9,1.6c-0.2,0.6-0.3,1.3-0.4,2v8.7h-1.8V7.9H126z"/>
	<path class="st3" d="M150.1,10c-0.7-0.6-1.6-1-2.8-1c-0.9,0-1.6,0.2-2.3,0.5c-0.7,0.4-1.2,0.8-1.6,1.4c-0.4,0.6-0.8,1.3-1,2
		c-0.2,0.8-0.3,1.5-0.3,2.3s0.1,1.6,0.3,2.3c0.2,0.8,0.5,1.4,1,2s1,1.1,1.6,1.4c0.7,0.4,1.4,0.5,2.3,0.5c0.6,0,1.1-0.1,1.6-0.3
		c0.5-0.2,0.9-0.5,1.3-0.9c0.4-0.4,0.7-0.8,1-1.3c0.2-0.5,0.4-1.1,0.5-1.7h1.8c-0.2,1.8-0.9,3.2-2,4.2s-2.5,1.5-4.1,1.5
		c-1.1,0-2.1-0.2-3-0.6s-1.6-1-2.2-1.7c-0.6-0.7-1-1.5-1.4-2.5c-0.3-1-0.5-2-0.5-3c0-1.1,0.2-2.1,0.5-3c0.3-1,0.8-1.8,1.4-2.5
		c0.6-0.7,1.3-1.3,2.2-1.7c0.9-0.4,1.9-0.6,3-0.6c1.6,0,2.9,0.4,4,1.3c1.1,0.8,1.8,2.1,2,3.8h-1.8C151.2,11.5,150.8,10.6,150.1,10z"
		/>
	<path class="st3" d="M158.6,17.9c0.2,0.7,0.5,1.3,0.9,1.9s0.9,1,1.5,1.4s1.4,0.5,2.2,0.5c1.3,0,2.4-0.3,3.1-1
		c0.7-0.7,1.3-1.6,1.6-2.8h1.8c-0.4,1.7-1.1,3-2.1,3.9s-2.5,1.4-4.4,1.4c-1.2,0-2.2-0.2-3-0.6c-0.9-0.4-1.5-1-2.1-1.7
		c-0.5-0.7-0.9-1.6-1.2-2.5c-0.3-1-0.4-2-0.4-3s0.1-1.9,0.4-2.9c0.3-0.9,0.7-1.8,1.2-2.5s1.2-1.3,2.1-1.8c0.9-0.5,1.9-0.7,3-0.7
		c1.2,0,2.2,0.2,3.1,0.7c0.8,0.5,1.5,1.1,2.1,1.9c0.5,0.8,0.9,1.7,1.1,2.7c0.2,1,0.3,2,0.3,3.1h-11.4
		C158.3,16.5,158.4,17.2,158.6,17.9z M167.5,12.3c-0.2-0.6-0.5-1.2-0.9-1.7s-0.9-0.9-1.5-1.2s-1.2-0.4-2-0.4c-0.7,0-1.4,0.1-2,0.4
		c-0.6,0.3-1.1,0.7-1.5,1.2s-0.7,1.1-1,1.7s-0.4,1.3-0.5,2h9.6C167.9,13.6,167.8,13,167.5,12.3z"/>
</g>
</svg>
