<?xml version="1.0" encoding="utf-8"?>
<!-- Generator: Adobe Illustrator 24.1.0, SVG Export Plug-In . SVG Version: 6.00 Build 0)  -->
<svg version="1.1" id="_x33_0" xmlns="http://www.w3.org/2000/svg" xmlns:xlink="http://www.w3.org/1999/xlink" x="0px" y="0px"
	 viewBox="0 0 512 512" style="enable-background:new 0 0 512 512;" xml:space="preserve">
<style type="text/css">
	.st0{fill:#FFFFFF;}
</style>
<g>
	<path class="st0" d="M152,184.8V168h-16v16h-32v40c0,22.1,17.9,40,40,40c13.2,0,24,10.8,24,24v24h-24c-13.2,0-24-10.8-24-24v-24
		h-16v24c0,19.3,13.8,35.5,32,39.2V344h16v-16h32v-40c0-22.1-17.9-40-40-40c-13.2,0-24-10.8-24-24v-24h24c13.2,0,24,10.8,24,24v24
		h16v-24C184,204.7,170.2,188.5,152,184.8L152,184.8z"/>
	<path class="st0" d="M504,168h-80v304h-32V264h-80v147.1l-32-16V328h-6c4-12.9,6-26.3,6-40c0-8.2-0.7-16.2-1.9-24.3
		c77-28.6,138.4-92.5,161.6-173.5l-15.4-4.4c-21.5,75.3-78.1,134.8-149.3,162c-5.8-23.4-16.6-45.6-31.8-64.6L184,109.2V82.4l1.3-2
		C194.9,66,200,49.3,200,32v-3.3l-2.3-2.3C195.8,24.5,177.9,8,128,8h-8v8c0,2.7,0.1,5.4,0.2,8.1c-13.4,0.6-25.3,8.2-31.4,20.3
		L87.1,48L104,81.9v27.3l-59.3,74.1C21,212.9,8,250.1,8,288c0,40.5,18.1,78.4,48.4,104H48c-22.1,0-40,17.9-40,40v32
		c0,22.1,17.9,40,40,40h225.9l32-16H504L504,168z M341.3,443.6c1.7,0.8,2.7,2.5,2.7,4.4s-1,3.6-2.7,4.4L280,483.1v-70.1L341.3,443.6
		z M104,408v80H88v-80H104z M264,344v48h-48v-48H264z M264,408v32H120v-32H264z M120,456h144v32H120V456z M183.9,35.9
		c-0.7,12.7-4.8,25-11.9,35.6l-0.3,0.5H149c-7.3-14.9-11.7-31.3-12.7-47.8C164.3,25.4,178.6,32.5,183.9,35.9z M168,88v16h-48V88H168
		z M121.9,40h0.2c1.9,11,5,21.8,9.3,32h-14.5l-11.8-23.6C109,43.1,115.2,40,121.9,40z M24,288c0-34.3,11.8-68,33.2-94.7l58.6-73.3
		h56.3l58.6,73.3c14.1,17.6,23.9,38.1,29,59.9c-16.3,5-33.2,8.5-50.6,10l-9.9,0.9l1.4,15.9l9.9-0.9c17.9-1.6,35.2-5.1,52-10.2
		c0.8,6.3,1.3,12.7,1.3,19.1c0,13.8-2.4,27.2-7,40h-57v64H84.2C47,370.6,24,330.9,24,288L24,288z M24,464v-32c0-13.2,10.8-24,24-24
		h24v80H48C34.8,488,24,477.2,24,464z M348.4,466.7c7.1-3.6,11.6-10.8,11.6-18.7s-4.4-15.2-11.6-18.7L328,419.1V280h48v192h-38.1
		L348.4,466.7z M488,472h-48V184h48V472z"/>
	<path class="st0" d="M280,24h48v16h-48V24z"/>
	<path class="st0" d="M344,24h80v16h-80V24z"/>
	<path class="st0" d="M280,56h144v16H280V56z"/>
	<path class="st0" d="M280,88h80v16h-80V88z"/>
	<path class="st0" d="M280,120h16v16h-16V120z"/>
	<path class="st0" d="M312,120h16v16h-16V120z"/>
	<path class="st0" d="M344,120h16v16h-16V120z"/>
</g>
</svg>
