<?xml version="1.0" encoding="utf-8"?>
<!-- Generator: Adobe Illustrator 24.1.0, SVG Export Plug-In . SVG Version: 6.00 Build 0)  -->
<svg version="1.1" id="Capa_1" xmlns="http://www.w3.org/2000/svg" xmlns:xlink="http://www.w3.org/1999/xlink" x="0px" y="0px"
	 viewBox="0 0 512 512" style="enable-background:new 0 0 512 512;" xml:space="preserve">
<style type="text/css">
	.st0{fill:#FFFFFF;}
</style>
<g>
	<g>
		<path class="st0" d="M352.1,137.9c-0.2-0.3-0.5-0.6-0.7-0.9c-0.2-0.2-0.4-0.4-0.6-0.6c-23.4-24.2-56-39.5-92.1-40.2
			c-0.2,0-0.4,0-0.7,0c-0.1,0-0.3,0-0.4,0c-0.5,0-1.1,0-1.6,0c-72.7,0-131.8,59.1-131.8,131.8c0,0.3,0,0.5,0,0.8c0,0.1,0,0.1,0,0.2
			c0,0.1,0,0.2,0,0.3c0.7,72,59.5,130.4,131.7,130.4c72.7,0,131.8-59.1,131.8-131.8C387.8,193.2,374.2,161.5,352.1,137.9z
			 M256,344.7c-61.5,0-112-47.8-116.4-108.2h9.2c4.1,0,7.5-3.4,7.5-7.5s-3.4-7.5-7.5-7.5h-9.3c1.5-27,12.2-51.6,29.1-70.7l6.6,6.6
			c1.5,1.5,3.4,2.2,5.3,2.2c1.9,0,3.8-0.7,5.3-2.2c2.9-2.9,2.9-7.7,0-10.6l-6.6-6.6c19.2-16.8,44.1-27.5,71.3-28.8v9.4
			c0,4.2,3.4,7.5,7.5,7.5c4.2,0,7.5-3.4,7.5-7.5v-9.1c26.9,2.2,51.2,13.5,69.8,30.8l-5.7,5.7c-2.9,2.9-2.9,7.7,0,10.6
			c1.5,1.5,3.4,2.2,5.3,2.2c1.9,0,3.8-0.7,5.3-2.2l5.4-5.4c16,19.2,25.9,43.5,27,70.1h-10.4c-4.2,0-7.5,3.4-7.5,7.5s3.4,7.5,7.5,7.5
			h10C366.9,297.9,316.8,344.7,256,344.7z"/>
	</g>
</g>
<g>
	<g>
		<path class="st0" d="M411.3,215.1C404.7,135.2,337.6,72.1,256,72.1s-148.7,63-155.3,142.9C43.7,221.1,0,269,0,327.1
			c0,62.2,50.6,112.7,112.7,112.7c42.8,0,81.6-24.1,100.7-62c13.7,3.9,28,5.9,42.6,5.9c14.6,0,28.9-2,42.6-5.9
			c19.1,37.9,57.9,62,100.7,62c62.2,0,112.7-50.6,112.7-112.7C512,269,468.3,221.1,411.3,215.1z M112.7,424.8
			C58.9,424.8,15,381,15,327.1c0-49.6,36.8-90.8,85.2-96.9c0.1,3.7,0.2,7.4,0.6,11.1c-42.5,5.8-74.7,42.1-74.7,85.8
			c0,47.8,38.9,86.7,86.7,86.7c32,0,61.1-17.5,76.1-45.3c3.3,1.6,6.7,3.1,10.2,4.4C182.2,404.7,149.1,424.8,112.7,424.8z M256,368.7
			c-40.9,0-79.7-17.8-106.5-48.7c-2.7-3.1-7.5-3.5-10.6-0.8c-3.1,2.7-3.5,7.5-0.8,10.6c10.9,12.6,23.6,23.2,37.5,31.6
			c-12.5,22.9-36.5,37.4-62.9,37.4c-39.5,0-71.6-32.1-71.6-71.6c0-36.1,26.6-66.1,61.7-70.9c3.1,16.7,8.9,32.9,17.2,47.7
			c1.4,2.5,3.9,3.8,6.6,3.8c1.2,0,2.5-0.3,3.7-1c3.6-2,4.9-6.6,2.9-10.2c-11.7-20.9-17.9-44.6-17.9-68.6
			c0-77.6,63.2-140.8,140.8-140.8s140.8,63.2,140.8,140.8c0,23.8-6,47.3-17.5,68c-2,3.6-0.7,8.2,2.9,10.2c3.6,2,8.2,0.7,10.2-2.9
			c8.1-14.6,13.7-30.6,16.8-47c35.1,4.8,61.7,34.8,61.7,70.9c0,39.5-32.1,71.6-71.6,71.6c-26.4,0-50.4-14.5-62.9-37.4
			c14.2-8.5,27-19.4,38-32.2c2.7-3.2,2.3-7.9-0.8-10.6c-3.2-2.7-7.9-2.3-10.6,0.8C336.2,350.8,297.2,368.7,256,368.7z M399.3,424.8
			c-36.4,0-69.4-20.1-86.3-51.9c3.4-1.4,6.8-2.8,10.2-4.4c15.1,27.7,44.1,45.3,76.1,45.3c47.8,0,86.7-38.9,86.7-86.7
			c0-43.8-32.2-80-74.7-85.8c0.3-3.7,0.5-7.4,0.6-11.1c48.4,6.1,85.2,47.2,85.2,96.9C497,381,453.1,424.8,399.3,424.8z"/>
	</g>
</g>
<g>
	<g>
		<path class="st0" d="M434,337.6l-31.1-17c-3.6-2-8.2-0.7-10.2,3c-2,3.6-0.7,8.2,3,10.2l31.1,17c1.1,0.6,2.4,0.9,3.6,0.9
			c2.7,0,5.2-1.4,6.6-3.9C438.9,344.1,437.6,339.6,434,337.6z"/>
	</g>
</g>
<g>
	<g>
		<path class="st0" d="M118.6,322.5c-2.6-3.3-7.3-3.8-10.6-1.2l-24,19c-3.3,2.6-3.8,7.3-1.2,10.6c1.5,1.9,3.7,2.9,5.9,2.9
			c1.6,0,3.3-0.5,4.7-1.6l24-19C120.6,330.5,121.2,325.7,118.6,322.5z"/>
	</g>
</g>
<g>
	<g>
		<path class="st0" d="M298.4,271.5h-84.8c-10.6,0-19.2,8.6-19.2,19.2v8.7c0,10.6,8.6,19.2,19.2,19.2h84.8
			c10.6,0,19.2-8.6,19.2-19.2v-8.7C317.6,280.1,309,271.5,298.4,271.5z M302.6,299.4c0,2.3-1.9,4.2-4.2,4.2h-84.8
			c-2.3,0-4.2-1.9-4.2-4.2v-8.7c0-2.3,1.9-4.2,4.2-4.2h84.8c2.3,0,4.2,1.9,4.2,4.2V299.4z"/>
	</g>
</g>
<g>
	<g>
		<path class="st0" d="M335.2,200.9c-1.3-3.9-5.6-6-9.5-4.7l-53,18.1c-5.5-6.8-14.9-9.7-23.6-6.8c-11.2,3.8-17.3,16.1-13.4,27.3
			c3.1,8.9,11.4,14.6,20.4,14.6c2.3,0,4.6-0.4,6.9-1.2c8.7-3,14.3-11.1,14.6-19.8l53-18.1C334.4,209.1,336.5,204.9,335.2,200.9z
			 M261.8,230.8c-0.8,1.6-2.1,2.7-3.7,3.3c-1.6,0.6-3.4,0.4-5-0.3c-1.6-0.8-2.7-2.1-3.3-3.7s-0.4-3.4,0.3-5s2.1-2.7,3.7-3.3
			c0.7-0.2,1.4-0.4,2.1-0.4c1,0,2,0.2,2.9,0.7c1.6,0.8,2.7,2.1,3.3,3.7C262.7,227.5,262.6,229.3,261.8,230.8z"/>
	</g>
</g>
</svg>
